<?xml version="1.0" encoding="utf-8"?>
<!-- Generator: Adobe Illustrator 18.1.1, SVG Export Plug-In . SVG Version: 6.00 Build 0)  -->
<!DOCTYPE svg PUBLIC "-//W3C//DTD SVG 1.1//EN" "http://www.w3.org/Graphics/SVG/1.1/DTD/svg11.dtd">
<svg version="1.1" id="Layer_3" xmlns="http://www.w3.org/2000/svg" xmlns:xlink="http://www.w3.org/1999/xlink" x="0px" y="0px"
	 viewBox="0 0 658 217" enable-background="new 0 0 658 217" xml:space="preserve">
<g>
	<path fill="#005CB9" d="M401.4,92.6c2.7,2.2,8.2,6.8,8.2,15.6c0,8.5-4.8,12.6-9.7,16.4c-1.5,1.5-3.2,3.1-3.2,5.7c0,2.5,1.7,3.9,3,5
		l4.2,3.2c5.1,4.3,9.7,8.2,9.7,16.1c0,10.8-10.5,21.8-30.3,21.8c-16.7,0-24.8-8-24.8-16.5c0-4.2,2.1-10,8.9-14.1
		c7.1-4.4,16.8-5,22-5.3c-1.6-2.1-3.5-4.3-3.5-7.8c0-2,0.6-3.1,1.2-4.5c-1.3,0.1-2.5,0.2-3.7,0.2c-12.2,0-19.1-9.1-19.1-18.1
		c0-5.3,2.4-11.2,7.4-15.4c6.6-5.4,14.4-6.3,20.6-6.3h23.7l-7.4,4.1H401.4z M393.2,143.8c-0.9-0.1-1.5-0.1-2.6-0.1
		c-1,0-7.3,0.2-12.1,1.8c-2.5,0.9-9.9,3.7-9.9,11.9c0,8.2,8,14.1,20.3,14.1c11.1,0,16.9-5.3,16.9-12.5
		C405.7,153.2,401.9,150.1,393.2,143.8z M396.5,121.9c2.7-2.7,2.9-6.3,2.9-8.4c0-8.3-5-21.2-14.5-21.2c-3,0-6.2,1.5-8.1,3.8
		c-2,2.4-2.5,5.5-2.5,8.5c0,7.7,4.5,20.5,14.4,20.5C391.6,125.2,394.7,123.8,396.5,121.9z"/>
	<path fill="#FFC627" d="M328.8,142c-18.3,0-28.1-14.3-28.1-27.2c0-15.1,12.3-28,29.8-28c16.9,0,27.5,13.2,27.5,27.2
		C358,127.6,347.5,142,328.8,142z M343.2,132.7c2.8-3.7,3.5-8.3,3.5-12.8c0-10.1-4.8-29.5-19.1-29.5c-3.8,0-7.6,1.5-10.4,3.9
		c-4.5,4-5.3,9.1-5.3,14c0,11.4,5.6,30.1,19.6,30.1C335.9,138.5,340.5,136.3,343.2,132.7z"/>
	<path fill="#DD0031" d="M266.4,142c-18.3,0-28.1-14.3-28.1-27.2c0-15.1,12.3-28,29.8-28c16.9,0,27.5,13.2,27.5,27.2
		C295.6,127.6,285.2,142,266.4,142z M280.8,132.7c2.8-3.7,3.5-8.3,3.5-12.8c0-10.1-4.8-29.5-19.1-29.5c-3.8,0-7.6,1.5-10.4,3.9
		c-4.5,4-5.3,9.1-5.3,14c0,11.4,5.6,30.1,19.6,30.1C273.5,138.5,278.1,136.3,280.8,132.7z"/>
	<path fill="#005CB9" d="M229.5,140.2L213,144c-6.7,1-12.7,2-19.1,2c-31.9,0-44.1-23.5-44.1-41.9c0-22.4,17.2-43.3,46.8-43.3
		c6.2,0,12.3,0.9,17.7,2.4c8.7,2.4,12.7,5.4,15.3,7.2l-9.6,9.1l-4,0.9l2.9-4.6C214.8,72,207.6,65,194,65
		c-18.3,0-32.1,13.9-32.1,34.1c0,21.8,15.7,42.2,41,42.2c7.4,0,11.2-1.5,14.7-2.9v-18.6l-17.5,0.9l9.3-5h24.5l-3,2.9
		c-0.8,0.7-0.9,0.9-1.2,1.8c-0.1,1-0.2,4.4-0.2,5.6V140.2z"/>
	<path fill="#4E9D2D" d="M437.9,136.9c-3.8-0.3-4.6-1-4.6-5.6V130V65.8c0-0.3,0-0.5,0.1-0.7c0.5-4,1.6-4.7,5.2-6.8H422l-8.7,4.2h8.8
		v0.1l0,0V130v3.8c0,2.3-0.5,2.7-3.1,6.1h20.5l4.3-2.5C441.9,137.2,439.9,137.1,437.9,136.9z"/>
	<path fill="#DD0031" d="M485,137.9c-1.3,0.7-2.5,1.5-3.8,2.1c-3.8,1.7-7.7,2.2-11.2,2.2c-3.7,0-9.4-0.2-15.3-4.5
		c-8.2-5.7-11.7-15.6-11.7-24.3c0-17.8,14.5-26.5,26.3-26.5c4.1,0,8.4,1,11.8,3.2c5.7,3.8,7.2,8.7,8,11.4l-27,10.9l-8.9,0.7
		c2.9,14.6,12.8,23.1,23.7,23.1c5.9,0,10.1-2.1,14-4L485,137.9z M474.2,103.7c2.2-0.8,3.3-1.5,3.3-3.1c0-4.6-5.2-9.9-11.4-9.9
		c-4.6,0-13.2,3.6-13.2,16c0,2,0.2,4,0.3,6.1L474.2,103.7z"/>
	<g>
		<path fill="#8D847A" d="M496.1,87.7v7.6h-0.9v-7.6h-2.5v-0.8h5.9v0.8H496.1z"/>
		<path fill="#8D847A" d="M506.4,95.3v-7.7h0l-2.3,7.7h-0.7l-2.4-7.7h0v7.7h-0.8v-8.4h1.4l2.1,6.8h0l2.1-6.8h1.5v8.4H506.4z"/>
	</g>
</g>
</svg>
